<?xml version="1.0" encoding="UTF-8"?>
<svg id="Layer_2" data-name="Layer 2" xmlns="http://www.w3.org/2000/svg" viewBox="0 0 182.63 125.97">
  <defs>
    <style>
      .cls-1 {
        fill: #f2685f;
      }
    </style>
  </defs>
  <g id="Layer_1-2" data-name="Layer 1">
    <path class="cls-1" d="M82.24,52.64h13.6s.07-.02.08-.06L111.45,3.61c.02-.06-.02-.11-.08-.11h-7.16s-.07.03-.08.06l-13.73,43.06c-.03.1-.18.07-.17-.04l4.56-42.99c0-.05-.03-.1-.09-.1h-7.17s-.08.03-.09.08l-5.28,48.97c0,.05.03.1.09.1"/>
    <path class="cls-1" d="M52.77,57.06h-7.17s-.08.03-.09.07l-8.23,38.72c-.55,2.6-2.26,4.34-4.06,4.34s-3.17-1.74-2.62-4.34l8.22-38.69c.01-.05-.03-.11-.09-.11h-7.17s-.08.03-.09.07l-8.03,37.79c-1.52,7.14,1.6,11.95,7.74,11.95h.8c6.14,0,11.31-4.81,12.82-11.95l8.02-37.75c.01-.05-.03-.11-.09-.11"/>
    <path class="cls-1" d="M65.17,98.85h-10.87c-.06,0-.1-.05-.09-.11l8.84-41.59c.01-.05-.03-.11-.09-.11h-7.17s-.08.03-.08.07l-10.41,48.97c-.01.05.03.11.08.11h18.25s.08-.03.09-.07l1.52-7.17c.01-.05-.03-.11-.09-.11"/>
    <path class="cls-1" d="M84.25,87.76s-.04.08-.09.08h-5.08c-.06,0-.1-.06-.08-.11l7.48-23.39c.03-.1.18-.07.17.03l-2.4,23.4ZM94.03,57.06h-11.86s-.07.02-.08.06l-16.33,48.97c-.02.06.02.12.08.12h7.16s.07-.03.08-.06l3.71-11.56s.05-.06.08-.06h6.59c.05,0,.09.05.09.1l-1.2,11.49s.04.1.09.1h7.17s.08-.04.09-.08l4.42-48.97c0-.05-.04-.1-.09-.1"/>
    <path class="cls-1" d="M121.74,10.77c.03-.1.18-.07.17.04l-2.4,23.4s-.04.08-.09.08h-5.08c-.06,0-.1-.06-.08-.11l7.48-23.4ZM101.09,52.64h7.16s.07-.02.08-.06l3.71-11.56s.05-.06.08-.06h6.59s.09.04.09.1l-1.2,11.49c0,.05.04.1.09.1h7.17s.08-.03.09-.08l4.42-48.97s-.03-.1-.09-.1h-11.86s-.07.03-.08.06l-16.33,48.96c-.02.06.02.12.08.12"/>
    <path class="cls-1" d="M111.32,79.82c-.39,1.8-2.18,3.01-4.51,3.01h-2.7c-.06,0-.1-.05-.09-.11l4.02-18.92s.04-.07.08-.07h2.74c2.34,0,3.5,1.74,2.95,4.34l-2.5,11.75ZM119.29,76.89l1.39-6.54c1.69-7.94-.18-13.28-6.79-13.28h-11.68s-.08.03-.08.07l-10.41,48.97c-.01.05.03.11.09.11h7.17s.08-.03.09-.07l3.66-17.22s.04-.07.09-.07h1.92s.08.03.09.08l1.9,17.2s.04.08.09.08h7.7c.05,0,.09-.05.09-.1l-2.24-18.74s0-.07.04-.08c3.33-1.94,5.91-5.67,6.91-10.39"/>
    <path class="cls-1" d="M133.74,57.06h-7.17s-.08.03-.08.07l-10.41,48.96c-.01.06.03.11.09.11h7.17s.08-.03.09-.07l10.41-48.97c.01-.05-.03-.11-.09-.11"/>
    <path class="cls-1" d="M23.46,73.88h-9.32c-.06,0-.1-.05-.09-.11l2.12-9.97s.04-.07.08-.07h10.7s.08-.03.08-.07l1.38-6.5c.01-.05-.03-.1-.08-.1H10.5s-.08.03-.09.07L0,106.09c0,.06.03.11.09.11h17.85s.08-.03.09-.07l1.38-6.5c0-.05-.03-.11-.09-.11h-10.62c-.06,0-.1-.05-.09-.11l3.99-18.79s.04-.07.09-.07h9.39s.08-.03.08-.07l1.38-6.5c.01-.05-.03-.11-.09-.11"/>
    <path class="cls-1" d="M72.22,27.52c-.06,0-.11.04-.12.1l-5.29,24.91c-.01.06.03.11.09.11h7.17s.08-.03.08-.07l5.7-26.79c.02-.08-.04-.15-.12-.15l-7.51,1.88Z"/>
    <path class="cls-1" d="M79.22,10.8c2.03,0,4.03-1.65,4.46-3.68.43-2.03-.87-3.68-2.9-3.68s-4.03,1.65-4.46,3.68c-.43,2.03.87,3.68,2.9,3.68"/>
    <path class="cls-1" d="M66.73,9.15l-.04.18c-.34,1.99-.96,4.44-1.78,7.07-.03.08-.1.14-.16.13-.74-.13-1.32-.35-1.66-.65-.6-.52-.71-1.97-.33-3.93.74-2.29,2.32-4.05,4.01-4.48.03,0,.06-.01.09-.02.04.4.03.99-.13,1.69M81.68,12.44c-3.47,1.48-6.72,2.63-9.12,3.27.52-1.87.91-3.55,1.16-4.98.78-3.62.12-6.84-1.81-8.85-.73-.76-2.01-1.7-4-1.89h-1.39c-.48.05-.95.13-1.42.24-4.16,1.06-7.68,4.74-9.17,9.6l-.08.33c-1.33,6.33.71,9.7,2.66,11.41,1.04.91,2.34,1.58,3.86,2-2.19,5.49-5.28,12.46-9.92,18.31-1.17,1.48-2.6,3.13-4.34,4.22-.31.19-.78.41-1.29.36-1.58-.16-2.09-2.4-2.43-3.88l-.04-.18c-.25-1.07-.44-2.12-.56-3.12-.66-5.37-.55-10.78-.38-14.88.37-9.12,1.56-18.48,2.37-24.25.01-.08-.05-.15-.13-.15h-6.94c-.07,0-.12.05-.13.11-.79,5.74-1.94,14.89-2.31,23.98-.23,5.8-.3,12,.74,18.05.64,3.71,1.82,8.29,5.29,10.68,1.22.84,2.64,1.28,4.13,1.28,6.1,0,10.66-5.78,14.33-11.44,3.35-5.18,6.3-11.21,9.01-18.44,0-.02.02-.06.04-.12.02-.05.06-.18.09-.27,3.11-.42,6.93-1.48,10.96-3.02.04-.02.06-.05.07-.08l1.81-8.61c.01-.07-.06-.13-.12-.1l-.93.41Z"/>
    <path class="cls-1" d="M157.46,83.42c-1.19,5.14-2.58,10.51-5.42,14.54-.75,1.07-1.42,1.75-2.04,2.08-.49.27-.59.2-.66.15-.41-.26-1.02-1.33-1.11-2.89-.32-5.86,2.96-11.55,7.98-13.84.42-.19.87-.38,1.36-.56l-.12.53ZM171.51,73.27c-1.99-.01-3.53.11-5.31.28.26-3.18.14-6.03-.37-8.69-1.24-6.42-5.56-11.01-10.77-11.42-.34-.03-.69-.04-1.03-.04-11.66,0-17.04,16.02-19.06,22.05-3.2,9.54-5.53,19.34-6.91,29.15l-.21,1.47c0,.05.03.1.08.1h6.78s.05-.04.08-.07l.19-1.26c1.33-8.99,3.56-18.28,6.45-26.89,2.47-7.37,6.47-17.18,12.64-17.18.16,0,.32,0,.48.02,2.44.19,4.05,2.94,4.56,5.57.47,2.44.49,5.1.06,8.37-2.05.51-3.94,1.17-5.64,1.94-7.64,3.49-12.64,12.14-12.15,21.05.21,3.81,1.92,7.19,4.47,8.8,1.12.71,2.34,1.07,3.59,1.07s2.43-.33,3.64-.98c1.6-.86,3.01-2.21,4.44-4.23,3.62-5.14,5.25-11.32,6.6-17.21l.06-.28c.27-1.17.57-2.49.85-3.81,2.1-.28,4.44-.41,6.61-.41.06,0,.12-.04.13-.11l1.51-7.1c.02-.08-.04-.16-.13-.16l-1.65-.04Z"/>
    <path class="cls-1" d="M141.27,125.92c-.69-.11-1.19-.39-1.51-.83-.32-.44-.42-1.01-.31-1.7l.44-2.7-1.06-.17.22-1.32.11.02c.3.05.55,0,.74-.12.19-.13.31-.35.36-.65l.08-.47,1.47.24-.23,1.39,1.41.23-.22,1.32-1.41-.23-.43,2.62c-.03.2-.03.38.02.53.05.15.14.28.28.38.14.1.33.17.57.21.05,0,.12.01.19.02.07,0,.14,0,.21.01l-.21,1.26c-.11,0-.23,0-.37-.01-.14,0-.26-.02-.38-.04"/>
    <path class="cls-1" d="M154.07,123.95c.33-.08.59-.22.81-.44.21-.21.35-.48.43-.79.08-.31.08-.64,0-.99-.08-.35-.23-.65-.44-.89-.21-.23-.45-.4-.74-.5-.29-.1-.59-.11-.92-.03-.33.08-.61.23-.82.45-.21.22-.36.48-.44.78-.08.3-.08.63,0,.99.08.35.23.64.44.89s.46.41.75.51c.29.09.6.1.93.02M154.39,125.28c-.59.14-1.16.13-1.71-.03-.55-.16-1.02-.44-1.42-.85-.4-.41-.67-.91-.81-1.52-.14-.61-.13-1.18.04-1.72.17-.54.46-1,.88-1.39.41-.39.92-.66,1.52-.8.59-.14,1.16-.13,1.71.03.55.16,1.01.44,1.41.84.4.4.67.91.81,1.52.14.61.13,1.18-.05,1.72-.18.54-.47,1.01-.89,1.39-.41.39-.92.65-1.5.79"/>
    <path class="cls-1" d="M167.95,118.85c-.38.29-.77.46-1.18.51-.41.05-.81-.02-1.19-.2-.38-.19-.72-.48-1.04-.88l-2.33-2.99,1.18-.91,2.25,2.89c.16.2.34.35.54.44.2.09.41.12.63.09.22-.03.43-.12.62-.27.19-.15.33-.32.41-.53.08-.2.11-.42.07-.64-.04-.22-.14-.44-.31-.66l-2.23-2.87,1.18-.91,3.8,4.89-1.12.86-.75-.96.23.09c.12.39.11.76-.04,1.11-.14.35-.39.66-.74.93"/>
    <path class="cls-1" d="M176.53,109.66l-5.24-3.31.75-1.19,1.17.74h-.23c-.31-.38-.47-.75-.46-1.1,0-.36.13-.72.36-1.09l.2-.31,1.12.71-.29.45c-.23.36-.3.72-.21,1.08.08.36.33.67.72.92l2.92,1.84-.8,1.26Z"/>
    <path class="cls-1" d="M182.53,96.52c-.16.64-.45,1.16-.88,1.56-.42.4-.92.62-1.49.67l-.25-1.22c.38-.07.7-.22.96-.45.26-.23.43-.51.52-.85.07-.27.06-.49-.02-.68-.08-.18-.21-.3-.41-.35-.12-.03-.22-.02-.32.02-.09.04-.18.11-.26.2s-.16.2-.23.31l-.52.91c-.27.47-.6.8-.97.99-.37.18-.76.23-1.17.12-.37-.09-.67-.27-.9-.52-.23-.26-.38-.57-.45-.95-.07-.38-.05-.78.06-1.22.14-.57.41-1.03.79-1.4.38-.37.84-.58,1.38-.64l.24,1.24c-.3.03-.56.15-.78.36-.22.2-.37.45-.45.76-.06.24-.06.45.02.62.08.17.2.27.38.32.11.03.21.02.31-.02.1-.04.18-.11.26-.2.08-.1.16-.21.24-.33l.53-.89c.27-.46.59-.78.95-.98.36-.2.76-.24,1.19-.13.36.09.66.27.88.53.23.26.38.58.45.96.07.38.05.8-.07,1.25"/>
  </g>
</svg>